<svg width="50" height="58" viewBox="0 0 50 58" fill="none" xmlns="http://www.w3.org/2000/svg">
<g clip-path="url(#clip0_315_1234)">
<path d="M48.2143 9.0625H39.0201L35.2254 2.63379C34.1629 0.999934 32.5223 0 30.6473 0H19.3527C17.4777 0 15.7366 0.999934 14.7768 2.63379L10.9799 9.0625H1.78571C0.795201 9.0625 0 9.8702 0 10.875V12.6875C0 13.6957 0.795201 14.5 1.78571 14.5H3.57143V50.75C3.57143 54.7545 6.76897 58 10.7143 58H39.2857C43.231 58 46.4286 54.7545 46.4286 50.75V14.5H48.2143C49.2076 14.5 50 13.6957 50 12.6875V10.875C50 9.8702 49.2076 9.0625 48.2143 9.0625ZM19.1853 5.76375C19.2969 5.56551 19.5201 5.4375 19.7545 5.4375H30.2455C30.4827 5.4375 30.7059 5.56494 30.8175 5.76318L32.7679 9.0625H17.2321L19.1853 5.76375ZM39.2857 52.5625H10.7143C9.72801 52.5625 8.92857 51.7511 8.92857 50.75V14.5H41.0714V50.75C41.0714 51.7469 40.2679 52.5625 39.2857 52.5625ZM25 47.125C25.9871 47.125 26.7857 46.3144 26.7857 45.3125V21.75C26.7857 20.7481 25.9871 19.9375 25 19.9375C24.0129 19.9375 23.2143 20.7531 23.2143 21.75V45.3125C23.2143 46.3094 24.0179 47.125 25 47.125ZM16.0714 47.125C17.0536 47.125 17.8571 46.3094 17.8571 45.3125V21.75C17.8571 20.7481 17.0585 19.9375 16.0714 19.9375C15.0844 19.9375 14.2857 20.7531 14.2857 21.75V45.3125C14.2857 46.3094 15.0893 47.125 16.0714 47.125ZM33.9286 47.125C34.9156 47.125 35.7143 46.3144 35.7143 45.3125V21.75C35.7143 20.7481 34.9156 19.9375 33.9286 19.9375C32.9415 19.9375 32.1429 20.7531 32.1429 21.75V45.3125C32.1429 46.3094 32.9464 47.125 33.9286 47.125Z" fill="#C20000"/>
</g>
<defs>
<clipPath id="clip0_315_1234">
<rect width="50" height="58" fill="white"/>
</clipPath>
</defs>
</svg>
