<svg width="24" height="24" viewBox="0 0 24 24" fill="none" xmlns="http://www.w3.org/2000/svg">
<path d="M14.5392 9.84921C14.5388 9.63197 14.5257 9.41494 14.5001 9.19921C14.4978 9.17929 14.4938 9.16015 14.4911 9.14023C14.4661 9.14257 14.4403 9.14296 14.413 9.1457C14.3302 9.15429 14.2489 9.16757 14.1673 9.18007C14.0724 9.19492 13.9774 9.20976 13.8837 9.22929C13.8028 9.24609 13.7231 9.26835 13.6435 9.2871C13.5524 9.31015 13.4618 9.33437 13.3724 9.3621C13.2942 9.38671 13.2161 9.41406 13.138 9.44218C13.0513 9.47382 12.9649 9.50624 12.8802 9.54179C12.8044 9.57382 12.7298 9.60781 12.656 9.64296C12.5728 9.68203 12.4911 9.72304 12.4103 9.76601C12.3384 9.80481 12.2675 9.84492 12.1978 9.88632C12.1396 9.9207 12.0825 9.95742 12.0259 9.99413H14.5325C14.5345 9.9457 14.5392 9.89804 14.5392 9.84921Z" fill="#1A4DAC"/>
<path d="M13.7919 12.6008C13.831 12.5328 13.872 12.4656 13.9091 12.3961C13.9532 12.3125 13.9923 12.2234 14.0313 12.1359C14.063 12.0672 14.0966 11.9992 14.1255 11.9289H10.1903C10.1571 11.9867 10.1224 12.043 10.0915 12.102C10.047 12.1867 10.0079 12.2734 9.96885 12.3613C9.93643 12.4316 9.90205 12.5008 9.87275 12.5727C9.86494 12.5914 9.85947 12.6117 9.85205 12.6293H13.7747L13.7919 12.6008Z" fill="#1A4DAC"/>
<path d="M8.57261 15.3391C8.54753 15.1098 8.5345 14.8794 8.53354 14.6488C8.53354 14.4363 8.54487 14.2262 8.56558 14.0187C8.57222 13.9484 8.58628 13.8808 8.59526 13.8113C8.61323 13.675 8.63081 13.5379 8.65737 13.4047C8.67339 13.3234 8.69644 13.2449 8.71519 13.1648C8.7437 13.0457 8.77144 12.9262 8.80659 12.8098C8.83159 12.7262 8.86245 12.6449 8.89097 12.5629C8.93003 12.4535 8.96597 12.3441 9.00815 12.2375C9.04214 12.1543 9.08081 12.0738 9.11792 11.9926C9.1644 11.891 9.21089 11.7894 9.26245 11.6902C9.30464 11.6098 9.35034 11.5316 9.39565 11.4531C9.45073 11.3582 9.50581 11.2637 9.56519 11.1715C9.61479 11.0933 9.66753 11.0203 9.72144 10.9457C9.78394 10.857 9.84761 10.7691 9.91479 10.6836C9.97104 10.6117 10.032 10.5418 10.0894 10.4723C10.1597 10.3898 10.2312 10.309 10.3054 10.2301C10.3683 10.1633 10.4328 10.0984 10.4984 10.0348C10.5765 9.95936 10.6546 9.88553 10.7363 9.81405C10.8046 9.7535 10.8738 9.69452 10.9449 9.63671C11.0292 9.56796 11.116 9.50233 11.2042 9.43749C11.2777 9.38397 11.3511 9.33085 11.4265 9.28124C11.5179 9.21991 11.6117 9.1621 11.7066 9.10546C11.7847 9.05897 11.8628 9.01288 11.941 8.96952C12.0394 8.916 12.1402 8.86718 12.2414 8.81874C12.3222 8.77968 12.4019 8.74061 12.4843 8.70546C12.589 8.66054 12.6964 8.62147 12.8039 8.58202C12.8871 8.55155 12.9695 8.51952 13.0542 8.49218C13.1667 8.45624 13.2816 8.42694 13.3968 8.39725C13.48 8.37577 13.5621 8.35155 13.6464 8.33319C13.7687 8.30663 13.8937 8.28827 14.0187 8.26874C14.0992 8.25624 14.1785 8.23983 14.2601 8.22968C14.2726 8.22968 14.2847 8.22499 14.2972 8.22382C14.1235 7.65877 13.8597 7.12548 13.516 6.64452L15.8507 4.30975H18.1968C18.3196 4.30975 18.4373 4.26098 18.5241 4.17418C18.6109 4.08737 18.6597 3.96963 18.6597 3.84686C18.6597 3.7241 18.6109 3.60636 18.5241 3.51955C18.4373 3.43274 18.3196 3.38397 18.1968 3.38397H15.6578C15.597 3.38394 15.5368 3.3959 15.4806 3.41916C15.4244 3.44242 15.3734 3.47652 15.3304 3.51952L12.9128 5.93671C11.8753 4.89528 10.4669 4.30828 8.99683 4.30468C5.94019 4.30468 3.45386 6.791 3.45386 9.84764C3.45386 12.7621 5.7148 15.1601 8.57495 15.375C8.57339 15.3641 8.57417 15.3516 8.57261 15.3391Z" fill="#3B72DA"/>
<path d="M9.46094 14.6488C9.46236 14.866 9.47645 15.0829 9.50313 15.2984C9.50547 15.3184 9.50937 15.3375 9.51211 15.3578C9.5375 15.3555 9.56367 15.3551 9.59023 15.3523C9.67187 15.3437 9.75273 15.3305 9.83359 15.318C9.9293 15.3035 10.025 15.2883 10.1191 15.2687C10.1996 15.2519 10.2789 15.2316 10.3582 15.2113C10.4496 15.1879 10.541 15.1637 10.6316 15.1355C10.7098 15.1113 10.7879 15.084 10.8633 15.0574C10.9508 15.0258 11.0379 14.993 11.1234 14.957C11.1988 14.9254 11.2727 14.8914 11.3465 14.8566C11.4297 14.8176 11.5117 14.7762 11.5926 14.7328C11.6645 14.6937 11.7352 14.6547 11.8051 14.6129C11.8305 14.5977 11.8555 14.5809 11.8809 14.5652H9.46406C9.46367 14.5926 9.46094 14.6203 9.46094 14.6488Z" fill="#1A4DAC"/>
<path d="M15.425 9.12189C15.425 9.134 15.425 9.1465 15.4273 9.15861C15.4524 9.38797 15.4655 9.6185 15.4664 9.84923C15.4664 10.0617 15.4551 10.2719 15.4344 10.4793C15.4277 10.5496 15.4137 10.6176 15.4047 10.6871C15.3867 10.8234 15.3691 10.9606 15.3426 11.0934C15.3266 11.1746 15.3035 11.2531 15.2844 11.3332C15.2559 11.4504 15.2285 11.5715 15.1934 11.6883C15.1684 11.7723 15.1371 11.8535 15.1086 11.9363C15.0695 12.0449 15.034 12.1539 14.9914 12.2602C14.957 12.3438 14.9184 12.4246 14.8809 12.5063C14.8344 12.6074 14.7883 12.7086 14.7367 12.8074C14.6945 12.8883 14.6484 12.9668 14.6027 13.0457C14.548 13.1402 14.4934 13.2344 14.4344 13.3258C14.3844 13.4039 14.3313 13.4785 14.2781 13.5535C14.216 13.6414 14.1531 13.7285 14.0871 13.8133C14.0297 13.8863 13.9699 13.957 13.9098 14.0277C13.8405 14.109 13.7694 14.1887 13.6965 14.2668C13.6344 14.3324 13.5707 14.3969 13.5062 14.4621C13.4984 14.4703 13.491 14.4777 13.4824 14.4856C13.4121 14.5535 13.3395 14.6199 13.266 14.6852C13.1926 14.7504 13.1266 14.8063 13.0547 14.8645C12.9711 14.9324 12.8855 14.9973 12.7988 15.0598C12.7242 15.1145 12.6492 15.1684 12.5723 15.2199C12.4824 15.2801 12.3902 15.3371 12.2988 15.3926C12.2207 15.4399 12.1426 15.4871 12.0605 15.5313C11.9637 15.584 11.8652 15.632 11.7645 15.6797C11.6828 15.7188 11.6016 15.7578 11.5176 15.7949C11.4141 15.8395 11.3078 15.8781 11.2012 15.9172C11.1172 15.9481 11.034 15.9805 10.9484 16.0078C10.8367 16.0438 10.7223 16.0727 10.6078 16.1024C10.5238 16.1242 10.4414 16.1484 10.3562 16.1668C10.2332 16.1938 10.1074 16.2121 9.98203 16.2317C9.90391 16.2442 9.82578 16.2602 9.74375 16.2707C9.73086 16.2707 9.71875 16.2754 9.70469 16.2766C9.82281 16.6574 9.98222 17.0242 10.1801 17.3703L7.85937 19.6906H5.51172C5.38895 19.6906 5.27121 19.7394 5.18441 19.8262C5.0976 19.913 5.04883 20.0308 5.04883 20.1535C5.04883 20.2763 5.0976 20.394 5.18441 20.4808C5.27121 20.5676 5.38895 20.6164 5.51172 20.6164H8.05078C8.11157 20.6164 8.17178 20.6045 8.22795 20.5812C8.28412 20.558 8.33515 20.5239 8.37812 20.4809L10.7109 18.1481C11.2308 18.7852 11.8856 19.299 12.6281 19.6525C13.3707 20.0059 14.1824 20.1901 15.0047 20.1918C18.0613 20.1918 20.5477 17.7051 20.5477 14.6488C20.5461 11.7344 18.2852 9.33829 15.425 9.12189Z" fill="#1A4DAC"/>
<path d="M12.8375 13.8199C12.8953 13.7641 12.9546 13.7078 13.0085 13.6496C13.0718 13.5832 13.132 13.5137 13.1917 13.4445C13.2441 13.384 13.2964 13.3234 13.3457 13.2609C13.3496 13.2563 13.3527 13.2512 13.3562 13.2465H9.64917C9.63823 13.2879 9.62729 13.3289 9.61753 13.3703C9.60073 13.4395 9.58081 13.5074 9.56675 13.5773C9.5437 13.6926 9.52769 13.8117 9.51323 13.9289C9.51323 13.9352 9.51128 13.9414 9.5105 13.9477H12.7007C12.7468 13.9051 12.7925 13.8633 12.8375 13.8199Z" fill="#1A4DAC"/>
<path d="M14.3827 11.1281C14.3995 11.059 14.4194 10.991 14.4335 10.9207C14.4538 10.8191 14.4663 10.7148 14.4808 10.6113H11.2339C11.2101 10.6336 11.1858 10.6551 11.1624 10.6777C11.1046 10.734 11.0452 10.7898 10.9913 10.8484C10.928 10.9148 10.8679 10.984 10.8081 11.0535C10.7558 11.1141 10.7034 11.1746 10.6542 11.2371C10.6351 11.2613 10.6179 11.2871 10.5991 11.3117H14.3354C14.3522 11.2512 14.3675 11.1898 14.3827 11.1281Z" fill="#1A4DAC"/>
<path d="M5.51172 18.0344C5.38895 18.0344 5.27121 18.0831 5.18441 18.17C5.0976 18.2568 5.04883 18.3745 5.04883 18.4973C5.04883 18.62 5.0976 18.7378 5.18441 18.8246C5.27121 18.9114 5.38895 18.9602 5.51172 18.9602H7.76719C7.88995 18.9602 8.00769 18.9114 8.0945 18.8246C8.18131 18.7378 8.23008 18.62 8.23008 18.4973C8.23008 18.3745 8.18131 18.2568 8.0945 18.17C8.00769 18.0831 7.88995 18.0344 7.76719 18.0344H5.51172Z" fill="#1A4DAC"/>
<path d="M18.1983 4.96875H15.9429C15.8201 4.96875 15.7024 5.01752 15.6156 5.10433C15.5287 5.19114 15.48 5.30887 15.48 5.43164C15.48 5.55441 15.5287 5.67214 15.6156 5.75895C15.7024 5.84576 15.8201 5.89453 15.9429 5.89453H18.1983C18.3211 5.89453 18.4388 5.84576 18.5257 5.75895C18.6125 5.67214 18.6612 5.55441 18.6612 5.43164C18.6612 5.30887 18.6125 5.19114 18.5257 5.10433C18.4388 5.01752 18.3211 4.96875 18.1983 4.96875Z" fill="#1A4DAC"/>
</svg>
